<?xml version="1.0" encoding="UTF-8" standalone="no" ?>
<!DOCTYPE svg PUBLIC "-//W3C//DTD SVG 1.1//EN" "http://www.w3.org/Graphics/SVG/1.1/DTD/svg11.dtd">
<svg xmlns="http://www.w3.org/2000/svg" xmlns:xlink="http://www.w3.org/1999/xlink" version="1.1" width="1080" height="1080" viewBox="0 0 1080 1080" xml:space="preserve">
<desc>Created with Fabric.js 5.2.4</desc>
<defs>
</defs>
<g transform="matrix(1 0 0 1 540 540)" id="e4dfc655-71d7-4967-8a79-e9bf87ae17ac"  >
<rect style="stroke: none; stroke-width: 1; stroke-dasharray: none; stroke-linecap: butt; stroke-dashoffset: 0; stroke-linejoin: miter; stroke-miterlimit: 4; fill: rgb(255,255,255); fill-rule: nonzero; opacity: 1; visibility: hidden;" vector-effect="non-scaling-stroke"  x="-540" y="-540" rx="0" ry="0" width="1080" height="1080" />
</g>
<g transform="matrix(1 0 0 1 540 540)" id="aaadc7e1-4b1e-4f52-9d9f-80d030d0b0e2"  >
</g>
<g transform="matrix(7.58 0 0 7.58 540 540)"  >
<g style="" vector-effect="non-scaling-stroke"   >
		<g transform="matrix(1 0 0 1 -62.71 1.04)"  >
<path style="stroke: none; stroke-width: 1; stroke-dasharray: none; stroke-linecap: butt; stroke-dashoffset: 0; stroke-linejoin: miter; stroke-miterlimit: 4; fill: rgb(255,255,255); fill-rule: nonzero; opacity: 1;" vector-effect="non-scaling-stroke"  transform=" translate(-9.41, -19.12)" d="M 14.03 4.27 C 13.04 4.27 12.16 4.579999999999999 11.53 5.209999999999999 C 10.899999999999999 5.839999999999999 10.54 6.77 10.54 7.959999999999999 L 10.54 23.22 C 10.54 24.79 10.379999999999999 25.83 10.049999999999999 26.43 C 9.719999999999999 27.02 9.29 27.23 8.509999999999998 27.24 C 7.779999999999998 27.24 7.229999999999998 26.91 6.629999999999998 26.529999999999998 C 6.0299999999999985 26.159999999999997 5.379999999999998 25.729999999999997 4.499999999999998 25.729999999999997 C 3.419999999999998 25.729999999999997 2.5999999999999983 26.139999999999997 2.069999999999998 26.769999999999996 C 1.539999999999998 27.399999999999995 1.299999999999998 28.229999999999997 1.299999999999998 29.049999999999997 C 1.299999999999998 29.889999999999997 1.449999999999998 30.539999999999996 1.799999999999998 31.099999999999998 C 2.149999999999998 31.65 2.679999999999998 32.089999999999996 3.4099999999999984 32.57 L 3.4099999999999984 32.57 L 3.4099999999999984 32.57 C 4.749999999999998 33.45 6.879999999999999 33.96 8.719999999999999 33.96 C 12.469999999999999 33.97 14.719999999999999 32.67 15.979999999999999 30.79 C 17.24 28.919999999999998 17.52 26.52 17.529999999999998 24.31 L 17.529999999999998 7.95 C 17.529999999999998 6.7700000000000005 17.169999999999998 5.83 16.54 5.2 C 15.9 4.58 15.02 4.27 14.03 4.27 z" stroke-linecap="round" />
</g>
		<g transform="matrix(1 0 0 1 -43.18 4.61)"  >
<path style="stroke: none; stroke-width: 1; stroke-dasharray: none; stroke-linecap: butt; stroke-dashoffset: 0; stroke-linejoin: miter; stroke-miterlimit: 4; fill: rgb(255,255,255); fill-rule: nonzero; opacity: 1;" vector-effect="non-scaling-stroke"  transform=" translate(-28.94, -22.69)" d="M 35.49 11.42 C 34.510000000000005 11.42 33.65 11.81 33.06 12.44 C 32.46 13.07 32.120000000000005 13.95 32.120000000000005 14.899999999999999 L 32.120000000000005 24.56 C 32.120000000000005 25.66 31.710000000000004 26.43 31.110000000000003 26.95 C 30.520000000000003 27.46 29.720000000000002 27.72 28.960000000000004 27.71 C 28.200000000000003 27.71 27.410000000000004 27.46 26.810000000000006 26.95 C 26.220000000000006 26.439999999999998 25.810000000000006 25.669999999999998 25.800000000000004 24.56 L 25.800000000000004 14.899999999999999 C 25.800000000000004 13.939999999999998 25.460000000000004 13.069999999999999 24.860000000000003 12.439999999999998 C 24.270000000000003 11.809999999999997 23.410000000000004 11.419999999999998 22.430000000000003 11.419999999999998 C 21.450000000000003 11.419999999999998 20.6 11.809999999999999 20.000000000000004 12.439999999999998 C 19.400000000000002 13.069999999999999 19.060000000000002 13.949999999999998 19.060000000000002 14.899999999999999 L 19.060000000000002 25.43 C 19.060000000000002 28.36 20.21 30.52 22.03 31.92 C 23.85 33.32 26.310000000000002 33.96 28.94 33.96 C 31.57 33.96 34.03 33.32 35.85 31.92 C 37.67 30.520000000000003 38.83 28.360000000000003 38.82 25.43 L 38.82 14.91 C 38.82 13.95 38.48 13.08 37.88 12.45 C 37.32 11.81 36.47 11.42 35.49 11.42 z" stroke-linecap="round" />
</g>
		<g transform="matrix(1 0 0 1 -22.1 -0.19)"  >
<path style="stroke: none; stroke-width: 1; stroke-dasharray: none; stroke-linecap: butt; stroke-dashoffset: 0; stroke-linejoin: miter; stroke-miterlimit: 4; fill: rgb(255,255,255); fill-rule: nonzero; opacity: 1;" vector-effect="non-scaling-stroke"  transform=" translate(-50.03, -17.89)" d="M 58.23 27.54 L 58.23 27.54 L 53.169999999999995 21.13 L 56.34 18 L 56.34 18 C 57.080000000000005 17.28 57.63 16.74 58.010000000000005 16.22 C 58.39000000000001 15.7 58.61000000000001 15.169999999999998 58.60000000000001 14.549999999999999 C 58.60000000000001 13.719999999999999 58.27000000000001 12.94 57.70000000000001 12.36 C 57.12000000000001 11.78 56.30000000000001 11.42 55.32000000000001 11.42 C 54.50000000000001 11.42 53.830000000000005 11.72 53.25000000000001 12.14 C 52.67000000000001 12.56 52.17000000000001 13.110000000000001 51.63000000000001 13.64 L 47.040000000000006 18.23 L 47.040000000000006 5.69 C 47.040000000000006 4.73 46.7 3.8600000000000003 46.10000000000001 3.2300000000000004 C 45.510000000000005 2.6000000000000005 44.650000000000006 2.2100000000000004 43.67000000000001 2.2100000000000004 C 42.69000000000001 2.2100000000000004 41.84000000000001 2.6000000000000005 41.24000000000001 3.2300000000000004 C 40.64000000000001 3.8600000000000003 40.30000000000001 4.74 40.30000000000001 5.69 L 40.30000000000001 30.09 C 40.30000000000001 31.05 40.640000000000015 31.92 41.24000000000001 32.55 C 41.83000000000001 33.18 42.69000000000001 33.57 43.67000000000001 33.57 C 44.650000000000006 33.57 45.50000000000001 33.18 46.10000000000001 32.55 C 46.70000000000001 31.919999999999998 47.040000000000006 31.039999999999996 47.040000000000006 30.089999999999996 L 47.040000000000006 23.779999999999998 L 52.84 31.369999999999997 L 52.84 31.369999999999997 C 53.5 32.21 54 32.76 54.550000000000004 33.11 C 55.1 33.46 55.690000000000005 33.58 56.43000000000001 33.58 C 57.57000000000001 33.58 58.42000000000001 33.129999999999995 58.96000000000001 32.51 C 59.50000000000001 31.889999999999997 59.75000000000001 31.119999999999997 59.75000000000001 30.459999999999997 C 59.75000000000001 29.919999999999998 59.510000000000005 29.4 59.21000000000001 28.909999999999997 C 58.92 28.4 58.54 27.94 58.23 27.54 z" stroke-linecap="round" />
</g>
		<g transform="matrix(1 0 0 1 -2.94 4.41)"  >
<path style="stroke: none; stroke-width: 1; stroke-dasharray: none; stroke-linecap: butt; stroke-dashoffset: 0; stroke-linejoin: miter; stroke-miterlimit: 4; fill: rgb(255,255,255); fill-rule: nonzero; opacity: 1;" vector-effect="non-scaling-stroke"  transform=" translate(-69.19, -22.49)" d="M 79.03 24.2 C 79.62 23.73 79.9 22.95 79.9 21.82 C 79.9 19.05 78.89 16.36 77.10000000000001 14.350000000000001 C 75.31 12.340000000000002 72.72000000000001 11.020000000000001 69.58000000000001 11.020000000000001 C 66.33000000000001 11.020000000000001 63.54000000000001 12.370000000000001 61.58000000000001 14.470000000000002 C 59.62000000000001 16.580000000000002 58.47000000000001 19.44 58.47000000000001 22.490000000000002 C 58.47000000000001 25.67 59.530000000000015 28.540000000000003 61.460000000000015 30.61 C 63.390000000000015 32.69 66.18000000000002 33.96 69.58000000000001 33.96 C 71.96000000000001 33.96 74.43 33.46 76.32000000000001 32.56 C 77.27000000000001 32.11 78.07000000000001 31.560000000000002 78.65 30.92 C 79.23 30.270000000000003 79.58000000000001 29.520000000000003 79.58000000000001 28.69 C 79.58000000000001 27.830000000000002 79.25000000000001 27.09 78.73000000000002 26.57 C 78.21000000000002 26.05 77.49000000000002 25.76 76.73000000000002 25.76 C 75.89000000000001 25.770000000000003 75.07000000000002 26.28 74.05000000000001 26.76 C 73.03000000000002 27.240000000000002 71.85000000000001 27.71 70.37 27.71 C 68.43 27.71 67.26 27.19 66.58 26.55 C 65.99 26 65.75 25.34 65.7 24.79 L 76.61 24.79 C 77.63 24.79 78.44 24.67 79.03 24.2 z M 66.7 18.06 C 67.36 17.34 68.3 16.799999999999997 69.42 16.799999999999997 C 70.54 16.799999999999997 71.48 17.339999999999996 72.14 18.06 C 72.71 18.68 73.05 19.419999999999998 73.13 20 L 65.71 20 C 65.79 19.43 66.13 18.68 66.7 18.06 z" stroke-linecap="round" />
</g>
		<g transform="matrix(1 0 0 1 29.6 0)"  >
<path style="stroke: none; stroke-width: 1; stroke-dasharray: none; stroke-linecap: butt; stroke-dashoffset: 0; stroke-linejoin: miter; stroke-miterlimit: 4; fill: rgb(255,255,255); fill-rule: nonzero; opacity: 1;" vector-effect="non-scaling-stroke"  transform=" translate(-101.72, -18.08)" d="M 120.11 14.38 C 118.23 12.3 115.53999999999999 11.030000000000001 112.33 11.030000000000001 C 109.12 11.030000000000001 106.42999999999999 12.31 104.55 14.38 C 103 16.09 102.02 18.34 101.72 20.86 C 101.42 18.35 100.46 16.1 99 14.39 C 97.24 12.32 94.77 11.030000000000001 91.98 11.030000000000001 C 89.60000000000001 11.020000000000001 88.19 11.700000000000001 87.12 12.500000000000002 L 87.12 5.700000000000002 C 87.12 4.740000000000002 86.78 3.870000000000002 86.18 3.240000000000002 C 85.6 2.59 84.75 2.2 83.76 2.2 C 82.78 2.2 81.92 2.5900000000000003 81.33 3.22 C 80.73 3.85 80.39 4.73 80.39 5.68 L 80.39 30.08 C 80.39 31.04 80.73 31.909999999999997 81.33 32.54 C 81.92 33.17 82.78 33.56 83.76 33.56 C 85.21000000000001 33.56 86.19000000000001 32.68 86.72 31.770000000000003 C 88.09 33.31 89.74 33.96 91.99 33.96 C 94.78 33.96 97.25 32.68 99.00999999999999 30.6 C 100.46 28.89 101.42999999999999 26.64 101.72999999999999 24.130000000000003 C 102.02999999999999 26.650000000000002 103.00999999999999 28.900000000000002 104.55999999999999 30.610000000000003 C 106.43999999999998 32.690000000000005 109.13 33.96 112.33999999999999 33.96 C 115.54999999999998 33.96 118.24 32.69 120.11999999999999 30.61 C 121.99999999999999 28.53 123.05999999999999 25.669999999999998 123.05999999999999 22.490000000000002 C 123.05 19.32 121.99 16.45 120.11 14.38 z M 115.27 26.03 C 114.58999999999999 26.92 113.61999999999999 27.470000000000002 112.33 27.470000000000002 C 111.03999999999999 27.470000000000002 110.07 26.92 109.39 26.03 C 108.71 25.14 108.35 23.880000000000003 108.35 22.490000000000002 C 108.35 21.110000000000003 108.72 19.85 109.39 18.950000000000003 C 110.07000000000001 18.060000000000002 111.04 17.51 112.33 17.51 C 113.62 17.51 114.59 18.060000000000002 115.27 18.950000000000003 C 115.95 19.840000000000003 116.31 21.1 116.31 22.490000000000002 C 116.32 23.88 115.95 25.14 115.27 26.03 z M 95.1 22.5 C 95.1 23.88 94.72999999999999 25.14 94.05999999999999 26.04 C 93.37999999999998 26.93 92.40999999999998 27.48 91.11999999999999 27.48 C 89.82999999999998 27.48 88.85999999999999 26.93 88.17999999999999 26.04 C 87.49999999999999 25.15 87.13999999999999 23.89 87.13999999999999 22.5 C 87.13999999999999 21.12 87.50999999999999 19.86 88.17999999999999 18.96 C 88.86 18.07 89.83 17.52 91.11999999999999 17.52 C 92.41 17.52 93.38 18.07 94.05999999999999 18.96 C 94.73 19.86 95.1 21.11 95.1 22.5 z" stroke-linecap="round" />
</g>
		<g transform="matrix(1 0 0 1 57.23 -5.05)"  >
<polygon style="stroke: none; stroke-width: 1; stroke-dasharray: none; stroke-linecap: butt; stroke-dashoffset: 0; stroke-linejoin: miter; stroke-miterlimit: 4; fill: rgb(255,255,255); fill-rule: nonzero; opacity: 1;" vector-effect="non-scaling-stroke"  points="0,0 0,0 0,0 " />
</g>
		<g transform="matrix(1 0 0 1 63.41 -5.05)"  >
<polygon style="stroke: none; stroke-width: 1; stroke-dasharray: none; stroke-linecap: butt; stroke-dashoffset: 0; stroke-linejoin: miter; stroke-miterlimit: 4; fill: rgb(255,255,255); fill-rule: nonzero; opacity: 1;" vector-effect="non-scaling-stroke"  points="0,0 0,0 0,0 " />
</g>
		<g transform="matrix(1 0 0 1 60.31 4.41)"  >
<path style="stroke: none; stroke-width: 1; stroke-dasharray: none; stroke-linecap: butt; stroke-dashoffset: 0; stroke-linejoin: miter; stroke-miterlimit: 4; fill: rgb(255,255,255); fill-rule: nonzero; opacity: 1;" vector-effect="non-scaling-stroke"  transform=" translate(-132.43, -22.49)" d="M 141.66 27.37 L 141.66 27.37 L 136.54 21.94 L 139.59 18.71 L 139.59 18.71 C 140.48 17.76 141.08 17.130000000000003 141.48 16.580000000000002 C 141.86999999999998 16.03 142.04999999999998 15.520000000000001 142.04999999999998 14.920000000000002 C 142.04999999999998 13.860000000000001 141.64 12.980000000000002 141.02999999999997 12.380000000000003 C 140.41999999999996 11.780000000000003 139.60999999999999 11.440000000000003 138.79999999999998 11.440000000000003 C 138.05999999999997 11.440000000000003 137.48 11.530000000000003 136.95999999999998 11.790000000000003 C 136.43999999999997 12.050000000000002 135.99999999999997 12.460000000000003 135.52999999999997 13.050000000000002 L 132.43999999999997 16.880000000000003 L 129.34999999999997 13.040000000000003 C 128.87999999999997 12.450000000000003 128.44999999999996 12.040000000000003 127.91999999999996 11.780000000000003 C 127.39999999999996 11.520000000000003 126.80999999999996 11.430000000000003 126.07999999999996 11.430000000000003 C 125.26999999999995 11.430000000000003 124.45999999999995 11.770000000000003 123.84999999999995 12.370000000000003 C 123.23999999999995 12.970000000000002 122.82999999999996 13.850000000000003 122.82999999999996 14.910000000000004 C 122.82999999999996 15.520000000000003 123.00999999999996 16.020000000000003 123.39999999999995 16.570000000000004 C 123.78999999999995 17.120000000000005 124.38999999999994 17.750000000000004 125.28999999999995 18.700000000000003 L 125.28999999999995 18.700000000000003 L 128.33999999999995 21.930000000000003 L 123.21999999999994 27.35 L 123.21999999999994 27.35 C 122.70999999999994 27.93 121.91999999999994 28.770000000000003 121.91999999999994 30.19 C 121.91999999999994 31.21 122.31999999999995 32.07 122.94999999999995 32.65 C 123.57999999999994 33.24 124.44999999999995 33.559999999999995 125.35999999999994 33.559999999999995 C 126.06999999999994 33.559999999999995 126.63999999999994 33.349999999999994 127.09999999999994 33.029999999999994 C 127.56999999999994 32.709999999999994 127.93999999999994 32.3 128.29999999999993 31.879999999999995 L 132.42999999999992 27.069999999999997 L 136.55999999999992 31.879999999999995 C 136.91999999999993 32.3 137.2899999999999 32.72 137.7599999999999 33.029999999999994 C 138.2299999999999 33.349999999999994 138.7999999999999 33.559999999999995 139.49999999999991 33.559999999999995 C 140.4199999999999 33.559999999999995 141.27999999999992 33.239999999999995 141.9099999999999 32.65 C 142.5399999999999 32.07 142.9499999999999 31.209999999999997 142.9399999999999 30.189999999999998 C 142.96 28.79 142.17 27.96 141.66 27.37 z" stroke-linecap="round" />
</g>
</g>
</g>
</svg>