<svg width="191" height="33" fill="none" xmlns="http://www.w3.org/2000/svg"><path fill-rule="evenodd" clip-rule="evenodd" d="M60.599 10.07v15.557c0 .233.051.285.284.285h13.28c1.06 0 1.993-.311 2.795-.958 1.113-.906 1.63-2.123 1.63-3.547 0-.698.007-1.398.012-2.098.016-1.873.031-3.75-.063-5.616-.026-.906-.362-1.682-.932-2.355-.932-1.14-2.174-1.605-3.624-1.605H60.91c-.285 0-.31.103-.31.336Zm2.847 2.355v5.41a375 375 0 0 0 .006 1.812c.005 1.194.011 2.376-.006 3.547 0 .258.026.336.31.336h9.449c.285 0 .543-.026.802-.104 1.14-.414 1.709-1.164 1.709-2.407v-6.394c0-.233-.026-.44-.078-.673-.31-1.139-1.217-1.812-2.46-1.812h-9.447c-.233 0-.285.052-.285.285Z" fill="#fff"/><path d="m10.536 19.595 6.6 6.29c-.103.104-.233.052-.31.052H13.46c-.233 0-.389-.077-.57-.233-1.812-1.993-3.65-3.96-5.462-5.927-.13-.156-.259-.207-.44-.182H3.546c-.259 0-.336.052-.336.337.026 1.915 0 3.831.026 5.747 0 .233-.052.31-.31.31-.83-.026-1.658 0-2.486 0-.181 0-.233-.052-.233-.233v-8.283c0-.26.104-.26.31-.26h11.08c.595 0 1.035-.232 1.32-.75.078-.155.104-.31.104-.466 0-.854.025-1.708 0-2.537-.026-.776-.596-1.242-1.45-1.242H.544c-.26 0-.363-.052-.337-.337.026-.62.026-1.216 0-1.838 0-.18.026-.258.233-.258h12.788c1.501 0 2.588 1.139 2.588 2.64v4.53c0 1.217-.673 2.149-1.838 2.537a2.907 2.907 0 0 1-.828.103H10.536Z" fill="#fff"/><path fill-rule="evenodd" clip-rule="evenodd" d="m38.725 23.556-1.242 2.33c.052.052.105.057.165.063.03.003.06.006.093.014.276 0 .553-.003.829-.006.552-.005 1.104-.011 1.656.006.208 0 .285-.077.389-.259.57-1.087 1.138-2.148 1.708-3.209.104-.182.207-.233.388-.233h10.355c.207 0 .31.051.388.233.285.543.57 1.08.854 1.617.285.538.57 1.075.855 1.618.077.156.18.207.362.207h2.485c.259 0 .285-.051.155-.284a4643.307 4643.307 0 0 1-8.413-15.687c-.103-.181-.207-.233-.414-.233a52.2 52.2 0 0 1-2.847 0c-.285 0-.414.103-.544.336-1.204 2.252-2.407 4.498-3.61 6.744-1.205 2.245-2.408 4.49-3.612 6.743Zm9.138-11.416a2428.98 2428.98 0 0 0-4.142 7.714c.05 0 .067.01.08.018a.042.042 0 0 0 .023.008h7.947c.221 0 .186-.07.116-.21a284.947 284.947 0 0 0-.724-1.357c-.24-.445-.479-.892-.712-1.332-.4-.752-.8-1.497-1.202-2.248-.458-.853-.918-1.712-1.386-2.593Z" fill="#fff"/><path d="M99.35 12.27c2.044-1.217 4.063-2.46 6.134-3.598 1.838-1.01 3.702-1.994 5.618-2.9a71.218 71.218 0 0 1 3.831-1.682 64.733 64.733 0 0 1 3.753-1.346 50.79 50.79 0 0 1 6.135-1.58c1.864-.336 3.728-.646 5.617-.75 1.139-.052 2.278-.155 3.417-.155 2.433.026 4.867.207 7.274.621 2.226.388 4.401.958 6.497 1.76 2.33.88 4.504 2.02 6.575 3.417 1.89 1.269 3.624 2.77 5.203 4.427 1.683 1.786 3.107 3.779 4.53 5.798.026.026.026.078.078.155-.259-.103-.388-.284-.544-.414-1.967-1.812-3.96-3.624-6.135-5.177a47.175 47.175 0 0 0-3.598-2.33 43.148 43.148 0 0 0-8.542-3.727 47.732 47.732 0 0 0-6.031-1.502 46.66 46.66 0 0 0-8.258-.75c-2.278 0-4.53.155-6.782.466-2.537.336-5.022.906-7.481 1.605a55.715 55.715 0 0 0-7.274 2.692c-3.184 1.398-6.264 3.003-9.293 4.685-.207.13-.44.233-.647.337-.078.025-.078 0-.078-.052Z" fill="#fff"/><path d="M170.095 22.39c0 1.89.026 3.78 0 5.67 0 1.01-.285 1.967-.906 2.77-.88 1.113-2.045 1.656-3.469 1.682-2.304 0-4.607.026-6.885 0-1.709 0-3.003-.802-3.857-2.278-.389-.699-.518-1.475-.518-2.252V16.618c0-.258.078-.31.311-.284.75 0 1.501.026 2.226 0 .259 0 .336.051.336.336v11.027c0 .958.389 1.683 1.243 2.149.388.207.802.285 1.216.285h4.996c1.191 0 1.994-.57 2.382-1.709.103-.285.129-.595.129-.88V16.67c0-.285.052-.336.337-.336.75.026 1.501.026 2.226 0 .233 0 .285.051.285.284-.052 1.942-.052 3.857-.052 5.773ZM145.892 32.538c-1.76 0-3.546-.025-5.307 0-1.19 0-2.226-.31-3.08-1.138-.828-.777-1.346-1.683-1.398-2.848-.103-2.588-.026-5.203-.026-7.792 0-.362.026-.724.13-1.06.44-1.58 1.397-2.641 2.951-3.159a4.412 4.412 0 0 1 1.423-.207h11.261c.259 0 .336.052.336.31-.026.596-.026 1.191 0 1.76 0 .26-.051.363-.336.363H141.44c-.725 0-1.346.207-1.838.725-.389.388-.622.88-.622 1.424 0 2.355-.025 4.711 0 7.067 0 1.01.906 1.941 1.916 2.07.285.026.569.052.854.052h10.096c.259 0 .362.052.336.337-.026.595-.026 1.19 0 1.76 0 .233-.051.31-.31.31-2.019 0-4.013.026-5.98.026ZM181.252 16.334h8.516c.233 0 .311.026.311.285a22.277 22.277 0 0 0 0 1.864c0 .232-.052.284-.285.284h-6.808c-.259 0-.311.078-.311.337V32.15c0 .389 0 .389-.414.389h-2.174c-.233 0-.285-.052-.285-.285 0-4.375 0-8.724.026-13.098 0-.311-.078-.389-.388-.389-2.252.026-4.504 0-6.731.026-.233 0-.284-.052-.284-.285a22.9 22.9 0 0 0 0-1.89c0-.232.077-.258.284-.258 2.822-.026 5.695-.026 8.543-.026ZM80.919 9.759h2.847c.181 0 .207.13.259.233 1.372 2.537 2.718 5.073 4.09 7.61.078.155.155.31.259.492.414-.75.802-1.476 1.165-2.174 1.061-1.968 2.122-3.935 3.158-5.928.077-.181.18-.233.388-.233h2.718c.026.13-.052.207-.103.284-1.916 3.599-3.858 7.17-5.799 10.769a.962.962 0 0 0-.13.518v4.349c0 .207-.051.284-.258.284a34.936 34.936 0 0 0-2.33 0c-.259 0-.285-.077-.285-.285V21.33c0-.181-.051-.337-.13-.492a1428.746 1428.746 0 0 1-5.772-10.82.578.578 0 0 0-.077-.26ZM106.986 18.974v-1.01c0-.129-.026-.18-.182-.18h-5.565c-.155 0-.181.051-.181.18v2.15c0 .232.129.206.285.206h5.643c.673 0 1.216.233 1.501.88.104.26.155.518.155.777v2.33c0 .984-.595 1.605-1.579 1.63-2.174.026-4.374.026-6.549 0-.957 0-1.501-.595-1.553-1.578-.026-.337-.103-.725.052-.984.13-.233.57-.207.88-.285.233-.078.466-.13.751-.207v1.372c0 .181.051.207.233.207h6.083c.207 0 .259-.052.259-.259 0-.724-.026-1.475 0-2.2 0-.233-.052-.285-.285-.285-1.942 0-3.883 0-5.799.026-.983 0-1.786-.647-1.708-1.708.052-.725 0-1.476 0-2.2 0-.777.57-1.398 1.346-1.476.388-.026.803-.026 1.217-.026 1.656 0 3.287.026 4.944 0 1.294-.026 1.864.906 1.76 2.07 0 .104-.052.13-.155.156-.518.155-1.01.285-1.553.414ZM27.335 12.166h-7.507c-.258 0-.336-.078-.31-.336.026-.596.026-1.191 0-1.812 0-.233.052-.285.285-.285H34.868c.233 0 .285.052.259.285-.026.595-.026 1.19 0 1.812 0 .258-.052.336-.337.336-2.485-.026-4.97 0-7.455 0ZM27.31 23.556h7.506c.233 0 .31.052.31.285a21.746 21.746 0 0 0 0 1.838c0 .233-.077.285-.284.285H19.777c-.233 0-.31-.052-.31-.285.025-.621.025-1.243 0-1.864 0-.233.077-.259.284-.259h7.558ZM126.866 16.334h4.892c.233 0 .337.026.311.285-.026.31-.026.595 0 .906.026.207-.078.259-.259.259h-3.805c-.259 0-.337.051-.311.31 0 2.511 0 5.022.026 7.533 0 .259-.052.337-.311.31a7.981 7.981 0 0 0-1.113 0c-.233 0-.31-.051-.284-.284.026-.88 0-1.734 0-2.615v-4.995c0-.233-.052-.285-.285-.285h-3.779c-.233 0-.285-.078-.285-.285.026-.285.026-.57 0-.88-.026-.233.052-.285.285-.285 1.605.026 3.261.026 4.918.026ZM24.799 18.845h-5.022c-.233 0-.31-.026-.285-.285.026-.621.026-1.268 0-1.89 0-.18.052-.258.233-.258h10.147c.181 0 .233.051.233.233 0 .647-.026 1.294 0 1.915 0 .207-.052.285-.259.259-1.682 0-3.365.026-5.047.026ZM115.373 16.36h3.857c.258 0 .336.078.31.336a4.137 4.137 0 0 0 0 .803c.026.207-.026.31-.284.285h-7.818c-.207 0-.259-.052-.259-.26.026-.31.026-.595 0-.905-.026-.233.052-.285.285-.285 1.294.026 2.614.026 3.909.026ZM115.373 24.488h3.883c.207 0 .284.052.284.285-.026.31-.026.595 0 .905.026.26-.077.285-.31.285h-7.818c-.207 0-.259-.052-.259-.259.026-.31.026-.62 0-.931-.026-.233.078-.26.285-.26 1.346-.025 2.64-.025 3.935-.025ZM113.897 21.744h-2.459c-.207 0-.259-.052-.259-.259a5.89 5.89 0 0 0 0-.958c0-.155.026-.233.207-.233h4.97c.156 0 .207.052.207.207 0 .337-.026.674 0 1.036 0 .181-.077.207-.233.207h-2.433ZM99.35 12.27c.025.026.051.052.077.052-.13.103-.259.181-.44.233.078-.181.233-.233.362-.285Z" fill="#fff"/></svg>